<mxfile host="app.diagrams.net" agent="Mozilla/5.0 (Windows NT 10.0; Win64; x64) AppleWebKit/537.36 (KHTML, like Gecko) Chrome/135.0.0.0 Safari/537.36" version="26.2.14">
  <diagram name="Page-1" id="CfJ26agP6iaAWhF73-5B">
    <mxGraphModel dx="3030" dy="1163" grid="1" gridSize="10" guides="1" tooltips="1" connect="1" arrows="1" fold="1" page="1" pageScale="1" pageWidth="850" pageHeight="1100" math="0" shadow="0">
      <root>
        <mxCell id="0" />
        <mxCell id="1" parent="0" />
        <mxCell id="4poxYDKG_jttfk51-zst-3" value="" style="verticalLabelPosition=bottom;sketch=0;html=1;fillColor=#1ba1e2;verticalAlign=top;align=center;pointerEvents=1;shape=mxgraph.cisco_safe.design.actor_2;strokeColor=#006EAF;fontColor=#ffffff;" vertex="1" parent="1">
          <mxGeometry x="-19" y="620" width="19" height="50" as="geometry" />
        </mxCell>
        <mxCell id="4poxYDKG_jttfk51-zst-4" value="Doctors" style="text;html=1;align=center;verticalAlign=middle;whiteSpace=wrap;rounded=0;" vertex="1" parent="1">
          <mxGeometry x="-39.5" y="680" width="60" height="30" as="geometry" />
        </mxCell>
        <mxCell id="4poxYDKG_jttfk51-zst-41" value="" style="verticalLabelPosition=bottom;sketch=0;html=1;fillColor=#1ba1e2;verticalAlign=top;align=center;pointerEvents=1;shape=mxgraph.cisco_safe.design.actor_2;strokeColor=#006EAF;fontColor=#ffffff;" vertex="1" parent="1">
          <mxGeometry x="-9" y="320" width="19" height="50" as="geometry" />
        </mxCell>
        <mxCell id="4poxYDKG_jttfk51-zst-42" value="Patient/Users" style="text;html=1;align=center;verticalAlign=middle;whiteSpace=wrap;rounded=0;" vertex="1" parent="1">
          <mxGeometry x="-29.5" y="370" width="60" height="30" as="geometry" />
        </mxCell>
        <mxCell id="4poxYDKG_jttfk51-zst-43" value="" style="verticalLabelPosition=bottom;sketch=0;html=1;fillColor=#1ba1e2;verticalAlign=top;align=center;pointerEvents=1;shape=mxgraph.cisco_safe.design.actor_2;strokeColor=#006EAF;fontColor=#ffffff;" vertex="1" parent="1">
          <mxGeometry x="-19" y="1120" width="19" height="50" as="geometry" />
        </mxCell>
        <mxCell id="4poxYDKG_jttfk51-zst-44" value="Admin" style="text;html=1;align=center;verticalAlign=middle;whiteSpace=wrap;rounded=0;" vertex="1" parent="1">
          <mxGeometry x="-39.5" y="1170" width="60" height="30" as="geometry" />
        </mxCell>
        <mxCell id="4poxYDKG_jttfk51-zst-46" value="" style="rounded=0;whiteSpace=wrap;html=1;" vertex="1" parent="1">
          <mxGeometry x="207.5" y="170" width="702.5" height="1920" as="geometry" />
        </mxCell>
        <mxCell id="4poxYDKG_jttfk51-zst-47" value="&lt;font style=&quot;font-size: 20px;&quot;&gt;&lt;b style=&quot;&quot;&gt;Fundus Image Analysis&lt;/b&gt;&lt;/font&gt;" style="text;html=1;align=center;verticalAlign=middle;whiteSpace=wrap;rounded=0;" vertex="1" parent="1">
          <mxGeometry x="446.25" y="190" width="225" height="30" as="geometry" />
        </mxCell>
        <mxCell id="4poxYDKG_jttfk51-zst-48" value="&lt;b&gt;Register/SignUp&lt;/b&gt;" style="ellipse;whiteSpace=wrap;html=1;fillColor=#dae8fc;strokeColor=#6c8ebf;" vertex="1" parent="1">
          <mxGeometry x="310" y="260" width="127.5" height="40" as="geometry" />
        </mxCell>
        <mxCell id="4poxYDKG_jttfk51-zst-49" value="&lt;b&gt;Login&lt;/b&gt;" style="ellipse;whiteSpace=wrap;html=1;fillColor=#dae8fc;strokeColor=#6c8ebf;" vertex="1" parent="1">
          <mxGeometry x="368" y="360" width="115" height="40" as="geometry" />
        </mxCell>
        <mxCell id="4poxYDKG_jttfk51-zst-50" value="&lt;b&gt;Email Verification&lt;/b&gt;" style="ellipse;whiteSpace=wrap;html=1;fillColor=#dae8fc;strokeColor=#6c8ebf;" vertex="1" parent="1">
          <mxGeometry x="677.5" y="290" width="140" height="40" as="geometry" />
        </mxCell>
        <mxCell id="4poxYDKG_jttfk51-zst-51" value="&lt;b&gt;Forgot Password&lt;/b&gt;" style="ellipse;whiteSpace=wrap;html=1;fillColor=#dae8fc;strokeColor=#6c8ebf;" vertex="1" parent="1">
          <mxGeometry x="380" y="440" width="120" height="40" as="geometry" />
        </mxCell>
        <mxCell id="4poxYDKG_jttfk51-zst-52" value="&lt;b&gt;View Profile&lt;/b&gt;" style="ellipse;whiteSpace=wrap;html=1;fillColor=#dae8fc;strokeColor=#6c8ebf;" vertex="1" parent="1">
          <mxGeometry x="390" y="490" width="120" height="40" as="geometry" />
        </mxCell>
        <mxCell id="4poxYDKG_jttfk51-zst-53" value="&lt;b&gt;Edit Profile&lt;/b&gt;" style="ellipse;whiteSpace=wrap;html=1;fillColor=#dae8fc;strokeColor=#6c8ebf;" vertex="1" parent="1">
          <mxGeometry x="382.5" y="550" width="120" height="40" as="geometry" />
        </mxCell>
        <mxCell id="4poxYDKG_jttfk51-zst-54" value="&lt;b&gt;Upload Eye Images&lt;/b&gt;" style="ellipse;whiteSpace=wrap;html=1;fillColor=#dae8fc;strokeColor=#6c8ebf;" vertex="1" parent="1">
          <mxGeometry x="385" y="690" width="130" height="40" as="geometry" />
        </mxCell>
        <mxCell id="4poxYDKG_jttfk51-zst-55" value="&lt;b&gt;&amp;nbsp;Search Doctor&amp;nbsp;&lt;/b&gt;" style="ellipse;whiteSpace=wrap;html=1;fillColor=#dae8fc;strokeColor=#6c8ebf;" vertex="1" parent="1">
          <mxGeometry x="580" y="430" width="120" height="40" as="geometry" />
        </mxCell>
        <mxCell id="4poxYDKG_jttfk51-zst-56" value="&lt;b&gt;Complete Appointment&lt;/b&gt;" style="ellipse;whiteSpace=wrap;html=1;fillColor=#dae8fc;strokeColor=#6c8ebf;" vertex="1" parent="1">
          <mxGeometry x="600" y="1020" width="170" height="60" as="geometry" />
        </mxCell>
        <mxCell id="4poxYDKG_jttfk51-zst-57" value="&lt;b&gt;View Pending Appointment&lt;/b&gt;" style="ellipse;whiteSpace=wrap;html=1;fillColor=#dae8fc;strokeColor=#6c8ebf;" vertex="1" parent="1">
          <mxGeometry x="280" y="950" width="207.5" height="50" as="geometry" />
        </mxCell>
        <mxCell id="4poxYDKG_jttfk51-zst-58" value="&lt;b&gt;View Patient Profile&lt;/b&gt;" style="ellipse;whiteSpace=wrap;html=1;fillColor=#dae8fc;strokeColor=#6c8ebf;" vertex="1" parent="1">
          <mxGeometry x="282.5" y="1100" width="167.5" height="50" as="geometry" />
        </mxCell>
        <mxCell id="4poxYDKG_jttfk51-zst-59" value="&lt;b&gt;View Diagnosis Report&lt;/b&gt;" style="ellipse;whiteSpace=wrap;html=1;fillColor=#dae8fc;strokeColor=#6c8ebf;" vertex="1" parent="1">
          <mxGeometry x="650" y="790" width="160" height="40" as="geometry" />
        </mxCell>
        <mxCell id="4poxYDKG_jttfk51-zst-60" value="&lt;b&gt;Read Blogs&lt;/b&gt;" style="ellipse;whiteSpace=wrap;html=1;fillColor=#dae8fc;strokeColor=#6c8ebf;" vertex="1" parent="1">
          <mxGeometry x="340" y="750" width="120" height="40" as="geometry" />
        </mxCell>
        <mxCell id="4poxYDKG_jttfk51-zst-61" value="&lt;table&gt;&lt;tbody&gt;&lt;tr&gt;&lt;td data-col-size=&quot;sm&quot; data-end=&quot;2224&quot; data-start=&quot;2189&quot;&gt;&lt;b&gt;Search Blogs&lt;/b&gt;&lt;/td&gt;&lt;/tr&gt;&lt;/tbody&gt;&lt;/table&gt;&lt;table&gt;&lt;tbody&gt;&lt;tr&gt;&lt;td data-col-size=&quot;md&quot; data-end=&quot;2306&quot; data-start=&quot;2224&quot;&gt;&lt;/td&gt;&lt;/tr&gt;&lt;/tbody&gt;&lt;/table&gt;" style="ellipse;whiteSpace=wrap;html=1;fillColor=#dae8fc;strokeColor=#6c8ebf;" vertex="1" parent="1">
          <mxGeometry x="280" y="870" width="120" height="40" as="geometry" />
        </mxCell>
        <mxCell id="4poxYDKG_jttfk51-zst-62" value="&lt;b&gt;Comment on Blogs&lt;/b&gt;" style="ellipse;whiteSpace=wrap;html=1;fillColor=#dae8fc;strokeColor=#6c8ebf;" vertex="1" parent="1">
          <mxGeometry x="437.5" y="870" width="135" height="40" as="geometry" />
        </mxCell>
        <mxCell id="4poxYDKG_jttfk51-zst-63" value="&lt;b&gt;Logout&lt;/b&gt;" style="ellipse;whiteSpace=wrap;html=1;fillColor=#dae8fc;strokeColor=#6c8ebf;" vertex="1" parent="1">
          <mxGeometry x="390" y="620" width="100" height="40" as="geometry" />
        </mxCell>
        <mxCell id="4poxYDKG_jttfk51-zst-64" value="&amp;lt;&amp;lt;include&amp;gt;&amp;gt;" style="html=1;verticalAlign=bottom;labelBackgroundColor=none;endArrow=open;endFill=0;dashed=1;rounded=0;exitX=1;exitY=0.5;exitDx=0;exitDy=0;entryX=0.005;entryY=0.334;entryDx=0;entryDy=0;entryPerimeter=0;" edge="1" parent="1" source="4poxYDKG_jttfk51-zst-48" target="4poxYDKG_jttfk51-zst-50">
          <mxGeometry width="160" relative="1" as="geometry">
            <mxPoint x="360" y="390" as="sourcePoint" />
            <mxPoint x="520" y="390" as="targetPoint" />
          </mxGeometry>
        </mxCell>
        <mxCell id="4poxYDKG_jttfk51-zst-65" value="&amp;lt;&amp;lt;include&amp;gt;&amp;gt;" style="html=1;verticalAlign=bottom;labelBackgroundColor=none;endArrow=open;endFill=0;dashed=1;rounded=0;exitX=1;exitY=0.5;exitDx=0;exitDy=0;entryX=0;entryY=1;entryDx=0;entryDy=0;" edge="1" parent="1" source="4poxYDKG_jttfk51-zst-49" target="4poxYDKG_jttfk51-zst-50">
          <mxGeometry width="160" relative="1" as="geometry">
            <mxPoint x="400" y="370" as="sourcePoint" />
            <mxPoint x="530" y="400" as="targetPoint" />
          </mxGeometry>
        </mxCell>
        <mxCell id="4poxYDKG_jttfk51-zst-67" value="&amp;lt;&amp;lt;include&amp;gt;&amp;gt;" style="html=1;verticalAlign=bottom;labelBackgroundColor=none;endArrow=open;endFill=0;dashed=1;rounded=0;exitX=1;exitY=1;exitDx=0;exitDy=0;" edge="1" parent="1" source="4poxYDKG_jttfk51-zst-54" target="4poxYDKG_jttfk51-zst-59">
          <mxGeometry width="160" relative="1" as="geometry">
            <mxPoint x="494" y="849" as="sourcePoint" />
            <mxPoint x="575" y="916" as="targetPoint" />
          </mxGeometry>
        </mxCell>
        <mxCell id="4poxYDKG_jttfk51-zst-68" value="&amp;lt;&amp;lt;extend&amp;gt;&amp;gt;" style="html=1;verticalAlign=bottom;labelBackgroundColor=none;endArrow=open;endFill=0;dashed=1;rounded=0;exitX=0.642;exitY=0.083;exitDx=0;exitDy=0;exitPerimeter=0;entryX=0.399;entryY=0.958;entryDx=0;entryDy=0;entryPerimeter=0;" edge="1" parent="1" source="4poxYDKG_jttfk51-zst-61" target="4poxYDKG_jttfk51-zst-60">
          <mxGeometry width="160" relative="1" as="geometry">
            <mxPoint x="180" y="910" as="sourcePoint" />
            <mxPoint x="340" y="910" as="targetPoint" />
          </mxGeometry>
        </mxCell>
        <mxCell id="4poxYDKG_jttfk51-zst-69" value="&amp;lt;&amp;lt;extend&amp;gt;&amp;gt;" style="html=1;verticalAlign=bottom;labelBackgroundColor=none;endArrow=open;endFill=0;dashed=1;rounded=0;exitX=0.5;exitY=0;exitDx=0;exitDy=0;entryX=1;entryY=1;entryDx=0;entryDy=0;" edge="1" parent="1" source="4poxYDKG_jttfk51-zst-62" target="4poxYDKG_jttfk51-zst-60">
          <mxGeometry width="160" relative="1" as="geometry">
            <mxPoint x="317" y="1053" as="sourcePoint" />
            <mxPoint x="365" y="978" as="targetPoint" />
          </mxGeometry>
        </mxCell>
        <mxCell id="4poxYDKG_jttfk51-zst-70" value="v" style="verticalLabelPosition=bottom;sketch=0;html=1;fillColor=#1ba1e2;verticalAlign=top;align=center;pointerEvents=1;shape=mxgraph.cisco_safe.design.actor_2;strokeColor=#006EAF;fontColor=#ffffff;" vertex="1" parent="1">
          <mxGeometry x="1010" y="600" width="19" height="50" as="geometry" />
        </mxCell>
        <mxCell id="4poxYDKG_jttfk51-zst-71" value="System" style="text;html=1;align=center;verticalAlign=middle;whiteSpace=wrap;rounded=0;" vertex="1" parent="1">
          <mxGeometry x="989.5" y="660" width="60" height="30" as="geometry" />
        </mxCell>
        <mxCell id="4poxYDKG_jttfk51-zst-72" value="" style="endArrow=none;html=1;rounded=0;exitX=1;exitY=0;exitDx=0;exitDy=0;" edge="1" parent="1" source="4poxYDKG_jttfk51-zst-59">
          <mxGeometry width="50" height="50" relative="1" as="geometry">
            <mxPoint x="440" y="990" as="sourcePoint" />
            <mxPoint x="1000" y="640" as="targetPoint" />
          </mxGeometry>
        </mxCell>
        <mxCell id="4poxYDKG_jttfk51-zst-73" value="" style="endArrow=none;html=1;rounded=0;exitX=1;exitY=0;exitDx=0;exitDy=0;entryX=0;entryY=0.5;entryDx=0;entryDy=0;fillColor=#d5e8d4;strokeColor=#82b366;" edge="1" parent="1" source="4poxYDKG_jttfk51-zst-42" target="4poxYDKG_jttfk51-zst-48">
          <mxGeometry width="50" height="50" relative="1" as="geometry">
            <mxPoint x="350" y="500" as="sourcePoint" />
            <mxPoint x="400" y="450" as="targetPoint" />
          </mxGeometry>
        </mxCell>
        <mxCell id="4poxYDKG_jttfk51-zst-74" value="" style="endArrow=none;html=1;rounded=0;exitX=0.75;exitY=0;exitDx=0;exitDy=0;entryX=0;entryY=0.5;entryDx=0;entryDy=0;fillColor=#fff2cc;strokeColor=#d6b656;" edge="1" parent="1" source="4poxYDKG_jttfk51-zst-4" target="4poxYDKG_jttfk51-zst-49">
          <mxGeometry width="50" height="50" relative="1" as="geometry">
            <mxPoint x="41" y="380" as="sourcePoint" />
            <mxPoint x="320" y="290" as="targetPoint" />
          </mxGeometry>
        </mxCell>
        <mxCell id="4poxYDKG_jttfk51-zst-75" value="" style="endArrow=none;html=1;rounded=0;exitX=0.217;exitY=0.067;exitDx=0;exitDy=0;exitPerimeter=0;entryX=1;entryY=0.25;entryDx=0;entryDy=0;fillColor=#d5e8d4;strokeColor=#82b366;" edge="1" parent="1" source="4poxYDKG_jttfk51-zst-49" target="4poxYDKG_jttfk51-zst-42">
          <mxGeometry width="50" height="50" relative="1" as="geometry">
            <mxPoint x="350" y="500" as="sourcePoint" />
            <mxPoint x="250" y="300" as="targetPoint" />
          </mxGeometry>
        </mxCell>
        <mxCell id="4poxYDKG_jttfk51-zst-77" value="" style="endArrow=none;html=1;rounded=0;entryX=0.431;entryY=1.048;entryDx=0;entryDy=0;fillColor=#fff2cc;strokeColor=#d6b656;entryPerimeter=0;" edge="1" parent="1" target="4poxYDKG_jttfk51-zst-48">
          <mxGeometry width="50" height="50" relative="1" as="geometry">
            <mxPoint x="260" y="470" as="sourcePoint" />
            <mxPoint x="365" y="400" as="targetPoint" />
          </mxGeometry>
        </mxCell>
        <mxCell id="4poxYDKG_jttfk51-zst-78" value="" style="endArrow=none;html=1;rounded=0;exitX=0.75;exitY=0;exitDx=0;exitDy=0;entryX=0;entryY=0.5;entryDx=0;entryDy=0;fillColor=#fff2cc;strokeColor=#d6b656;" edge="1" parent="1" target="4poxYDKG_jttfk51-zst-52">
          <mxGeometry width="50" height="50" relative="1" as="geometry">
            <mxPoint x="16" y="690" as="sourcePoint" />
            <mxPoint x="378" y="390" as="targetPoint" />
          </mxGeometry>
        </mxCell>
        <mxCell id="4poxYDKG_jttfk51-zst-79" value="" style="endArrow=none;html=1;rounded=0;exitX=0.75;exitY=0;exitDx=0;exitDy=0;entryX=0;entryY=0.5;entryDx=0;entryDy=0;fillColor=#fff2cc;strokeColor=#d6b656;" edge="1" parent="1" target="4poxYDKG_jttfk51-zst-53">
          <mxGeometry width="50" height="50" relative="1" as="geometry">
            <mxPoint x="26" y="700" as="sourcePoint" />
            <mxPoint x="400" y="500" as="targetPoint" />
          </mxGeometry>
        </mxCell>
        <mxCell id="4poxYDKG_jttfk51-zst-80" value="" style="endArrow=none;html=1;rounded=0;exitX=1;exitY=0.75;exitDx=0;exitDy=0;entryX=0;entryY=0.5;entryDx=0;entryDy=0;fillColor=#fff2cc;strokeColor=#d6b656;" edge="1" parent="1" source="4poxYDKG_jttfk51-zst-4" target="4poxYDKG_jttfk51-zst-63">
          <mxGeometry width="50" height="50" relative="1" as="geometry">
            <mxPoint x="36" y="710" as="sourcePoint" />
            <mxPoint x="393" y="580" as="targetPoint" />
          </mxGeometry>
        </mxCell>
        <mxCell id="4poxYDKG_jttfk51-zst-81" value="" style="endArrow=none;html=1;rounded=0;exitX=0;exitY=0.5;exitDx=0;exitDy=0;entryX=1;entryY=0.25;entryDx=0;entryDy=0;fillColor=#d5e8d4;strokeColor=#82b366;" edge="1" parent="1" source="4poxYDKG_jttfk51-zst-52">
          <mxGeometry width="50" height="50" relative="1" as="geometry">
            <mxPoint x="403" y="373" as="sourcePoint" />
            <mxPoint x="41" y="388" as="targetPoint" />
          </mxGeometry>
        </mxCell>
        <mxCell id="4poxYDKG_jttfk51-zst-82" value="" style="endArrow=none;html=1;rounded=0;exitX=0.053;exitY=0.311;exitDx=0;exitDy=0;fillColor=#d5e8d4;strokeColor=#82b366;exitPerimeter=0;" edge="1" parent="1" source="4poxYDKG_jttfk51-zst-53">
          <mxGeometry width="50" height="50" relative="1" as="geometry">
            <mxPoint x="400" y="500" as="sourcePoint" />
            <mxPoint x="40" y="390" as="targetPoint" />
          </mxGeometry>
        </mxCell>
        <mxCell id="4poxYDKG_jttfk51-zst-83" value="" style="endArrow=none;html=1;rounded=0;exitX=0.079;exitY=0.289;exitDx=0;exitDy=0;entryX=1;entryY=1;entryDx=0;entryDy=0;fillColor=#d5e8d4;strokeColor=#82b366;exitPerimeter=0;" edge="1" parent="1" source="4poxYDKG_jttfk51-zst-63" target="4poxYDKG_jttfk51-zst-42">
          <mxGeometry width="50" height="50" relative="1" as="geometry">
            <mxPoint x="399" y="572" as="sourcePoint" />
            <mxPoint x="61" y="408" as="targetPoint" />
          </mxGeometry>
        </mxCell>
        <mxCell id="4poxYDKG_jttfk51-zst-84" value="" style="endArrow=none;html=1;rounded=0;exitX=0;exitY=0.5;exitDx=0;exitDy=0;fillColor=#d5e8d4;strokeColor=#82b366;" edge="1" parent="1" source="4poxYDKG_jttfk51-zst-51">
          <mxGeometry width="50" height="50" relative="1" as="geometry">
            <mxPoint x="400" y="500" as="sourcePoint" />
            <mxPoint x="40" y="380" as="targetPoint" />
          </mxGeometry>
        </mxCell>
        <mxCell id="4poxYDKG_jttfk51-zst-85" value="" style="endArrow=none;html=1;rounded=0;exitX=0.75;exitY=0;exitDx=0;exitDy=0;entryX=0;entryY=0.5;entryDx=0;entryDy=0;fillColor=#fff2cc;strokeColor=#d6b656;" edge="1" parent="1" target="4poxYDKG_jttfk51-zst-51">
          <mxGeometry width="50" height="50" relative="1" as="geometry">
            <mxPoint x="16" y="690" as="sourcePoint" />
            <mxPoint x="378" y="390" as="targetPoint" />
          </mxGeometry>
        </mxCell>
        <mxCell id="4poxYDKG_jttfk51-zst-86" value="" style="endArrow=none;html=1;rounded=0;fillColor=#d5e8d4;strokeColor=#82b366;" edge="1" parent="1" source="4poxYDKG_jttfk51-zst-55">
          <mxGeometry width="50" height="50" relative="1" as="geometry">
            <mxPoint x="390" y="470" as="sourcePoint" />
            <mxPoint x="50" y="390" as="targetPoint" />
          </mxGeometry>
        </mxCell>
        <mxCell id="4poxYDKG_jttfk51-zst-89" value="&lt;b&gt;View Appointments&lt;/b&gt;" style="ellipse;whiteSpace=wrap;html=1;fillColor=#dae8fc;strokeColor=#6c8ebf;" vertex="1" parent="1">
          <mxGeometry x="722.5" y="350" width="140" height="40" as="geometry" />
        </mxCell>
        <mxCell id="4poxYDKG_jttfk51-zst-90" value="" style="endArrow=none;html=1;rounded=0;exitX=0;exitY=0.5;exitDx=0;exitDy=0;fillColor=#d5e8d4;strokeColor=#82b366;" edge="1" parent="1" source="4poxYDKG_jttfk51-zst-89">
          <mxGeometry width="50" height="50" relative="1" as="geometry">
            <mxPoint x="640" y="530" as="sourcePoint" />
            <mxPoint x="440" y="430" as="targetPoint" />
          </mxGeometry>
        </mxCell>
        <mxCell id="4poxYDKG_jttfk51-zst-91" value="&lt;b&gt;Book Appointment&lt;/b&gt;" style="ellipse;whiteSpace=wrap;html=1;fillColor=#dae8fc;strokeColor=#6c8ebf;" vertex="1" parent="1">
          <mxGeometry x="640" y="540" width="132.5" height="40" as="geometry" />
        </mxCell>
        <mxCell id="4poxYDKG_jttfk51-zst-92" value="&lt;b&gt;View Doctor Profile&lt;/b&gt;" style="ellipse;whiteSpace=wrap;html=1;fillColor=#dae8fc;strokeColor=#6c8ebf;" vertex="1" parent="1">
          <mxGeometry x="710" y="655" width="152.5" height="40" as="geometry" />
        </mxCell>
        <mxCell id="4poxYDKG_jttfk51-zst-93" value="&amp;lt;&amp;lt;include&amp;gt;&amp;gt;" style="html=1;verticalAlign=bottom;labelBackgroundColor=none;endArrow=open;endFill=0;dashed=1;rounded=0;exitX=0.5;exitY=1;exitDx=0;exitDy=0;entryX=0.5;entryY=0;entryDx=0;entryDy=0;" edge="1" parent="1" source="4poxYDKG_jttfk51-zst-91" target="4poxYDKG_jttfk51-zst-92">
          <mxGeometry width="160" relative="1" as="geometry">
            <mxPoint x="493" y="390" as="sourcePoint" />
            <mxPoint x="708" y="334" as="targetPoint" />
          </mxGeometry>
        </mxCell>
        <mxCell id="4poxYDKG_jttfk51-zst-94" value="" style="endArrow=none;html=1;rounded=0;exitX=0;exitY=0;exitDx=0;exitDy=0;fillColor=#d5e8d4;strokeColor=#82b366;" edge="1" parent="1" source="4poxYDKG_jttfk51-zst-54">
          <mxGeometry width="50" height="50" relative="1" as="geometry">
            <mxPoint x="450" y="740" as="sourcePoint" />
            <mxPoint x="300" y="570" as="targetPoint" />
          </mxGeometry>
        </mxCell>
        <mxCell id="4poxYDKG_jttfk51-zst-95" value="" style="endArrow=none;html=1;rounded=0;exitX=0;exitY=0.5;exitDx=0;exitDy=0;fillColor=#d5e8d4;strokeColor=#82b366;" edge="1" parent="1" source="4poxYDKG_jttfk51-zst-91">
          <mxGeometry width="50" height="50" relative="1" as="geometry">
            <mxPoint x="640" y="530" as="sourcePoint" />
            <mxPoint x="520" y="440" as="targetPoint" />
          </mxGeometry>
        </mxCell>
        <mxCell id="4poxYDKG_jttfk51-zst-96" value="" style="endArrow=none;html=1;rounded=0;entryX=0.75;entryY=1;entryDx=0;entryDy=0;exitX=0.283;exitY=0.043;exitDx=0;exitDy=0;exitPerimeter=0;fillColor=#d5e8d4;strokeColor=#82b366;" edge="1" parent="1" source="4poxYDKG_jttfk51-zst-60" target="4poxYDKG_jttfk51-zst-42">
          <mxGeometry width="50" height="50" relative="1" as="geometry">
            <mxPoint x="450" y="740" as="sourcePoint" />
            <mxPoint x="500" y="690" as="targetPoint" />
          </mxGeometry>
        </mxCell>
        <mxCell id="4poxYDKG_jttfk51-zst-97" value="" style="endArrow=none;html=1;rounded=0;exitX=1;exitY=0.75;exitDx=0;exitDy=0;entryX=0;entryY=0.5;entryDx=0;entryDy=0;fillColor=#fff2cc;strokeColor=#d6b656;" edge="1" parent="1" target="4poxYDKG_jttfk51-zst-54">
          <mxGeometry width="50" height="50" relative="1" as="geometry">
            <mxPoint x="31" y="713" as="sourcePoint" />
            <mxPoint x="400" y="650" as="targetPoint" />
          </mxGeometry>
        </mxCell>
        <mxCell id="4poxYDKG_jttfk51-zst-99" value="" style="endArrow=none;html=1;rounded=0;entryX=0;entryY=0.5;entryDx=0;entryDy=0;fillColor=#fff2cc;strokeColor=#d6b656;" edge="1" parent="1" target="4poxYDKG_jttfk51-zst-57">
          <mxGeometry width="50" height="50" relative="1" as="geometry">
            <mxPoint x="30" y="720" as="sourcePoint" />
            <mxPoint x="395" y="720" as="targetPoint" />
          </mxGeometry>
        </mxCell>
        <mxCell id="4poxYDKG_jttfk51-zst-100" value="&lt;b&gt;View Confirmend Appointment&lt;/b&gt;" style="ellipse;whiteSpace=wrap;html=1;fillColor=#dae8fc;strokeColor=#6c8ebf;" vertex="1" parent="1">
          <mxGeometry x="282.5" y="1020" width="207.5" height="50" as="geometry" />
        </mxCell>
        <mxCell id="4poxYDKG_jttfk51-zst-101" value="" style="endArrow=none;html=1;rounded=0;entryX=0.005;entryY=0.409;entryDx=0;entryDy=0;fillColor=#fff2cc;strokeColor=#d6b656;entryPerimeter=0;exitX=0.75;exitY=1;exitDx=0;exitDy=0;" edge="1" parent="1" source="4poxYDKG_jttfk51-zst-4" target="4poxYDKG_jttfk51-zst-100">
          <mxGeometry width="50" height="50" relative="1" as="geometry">
            <mxPoint x="40" y="730" as="sourcePoint" />
            <mxPoint x="290" y="985" as="targetPoint" />
          </mxGeometry>
        </mxCell>
        <mxCell id="4poxYDKG_jttfk51-zst-102" value="&amp;lt;&amp;lt;extend&amp;gt;&amp;gt;" style="html=1;verticalAlign=bottom;labelBackgroundColor=none;endArrow=open;endFill=0;dashed=1;rounded=0;exitX=0.08;exitY=0.303;exitDx=0;exitDy=0;exitPerimeter=0;" edge="1" parent="1" source="4poxYDKG_jttfk51-zst-56" target="4poxYDKG_jttfk51-zst-100">
          <mxGeometry width="160" relative="1" as="geometry">
            <mxPoint x="515" y="880" as="sourcePoint" />
            <mxPoint x="452" y="794" as="targetPoint" />
          </mxGeometry>
        </mxCell>
        <mxCell id="4poxYDKG_jttfk51-zst-103" value="" style="endArrow=none;html=1;rounded=0;entryX=0;entryY=0.5;entryDx=0;entryDy=0;fillColor=#fff2cc;strokeColor=#d6b656;exitX=0.75;exitY=1;exitDx=0;exitDy=0;" edge="1" parent="1" target="4poxYDKG_jttfk51-zst-58">
          <mxGeometry width="50" height="50" relative="1" as="geometry">
            <mxPoint x="16" y="720" as="sourcePoint" />
            <mxPoint x="294" y="1050" as="targetPoint" />
          </mxGeometry>
        </mxCell>
        <mxCell id="4poxYDKG_jttfk51-zst-104" value="" style="endArrow=none;html=1;rounded=0;exitX=1;exitY=0.75;exitDx=0;exitDy=0;entryX=0;entryY=0.5;entryDx=0;entryDy=0;fillColor=#fff2cc;strokeColor=#d6b656;" edge="1" parent="1" target="4poxYDKG_jttfk51-zst-60">
          <mxGeometry width="50" height="50" relative="1" as="geometry">
            <mxPoint x="41" y="723" as="sourcePoint" />
            <mxPoint x="395" y="720" as="targetPoint" />
          </mxGeometry>
        </mxCell>
        <mxCell id="4poxYDKG_jttfk51-zst-105" value="" style="endArrow=none;html=1;rounded=0;exitX=1.158;exitY=0.747;exitDx=0;exitDy=0;fillColor=#f8cecc;strokeColor=#b85450;entryX=0;entryY=0.5;entryDx=0;entryDy=0;exitPerimeter=0;" edge="1" parent="1" source="4poxYDKG_jttfk51-zst-43" target="4poxYDKG_jttfk51-zst-49">
          <mxGeometry width="50" height="50" relative="1" as="geometry">
            <mxPoint x="430" y="870" as="sourcePoint" />
            <mxPoint x="480" y="820" as="targetPoint" />
          </mxGeometry>
        </mxCell>
        <mxCell id="4poxYDKG_jttfk51-zst-106" value="" style="endArrow=none;html=1;rounded=0;fillColor=#f8cecc;strokeColor=#b85450;entryX=0;entryY=0;entryDx=0;entryDy=0;" edge="1" parent="1" target="4poxYDKG_jttfk51-zst-52">
          <mxGeometry width="50" height="50" relative="1" as="geometry">
            <mxPoint x="320" y="480" as="sourcePoint" />
            <mxPoint x="378" y="390" as="targetPoint" />
          </mxGeometry>
        </mxCell>
        <mxCell id="4poxYDKG_jttfk51-zst-107" value="" style="endArrow=none;html=1;rounded=0;fillColor=#f8cecc;strokeColor=#b85450;entryX=0.146;entryY=0.117;entryDx=0;entryDy=0;entryPerimeter=0;" edge="1" parent="1" target="4poxYDKG_jttfk51-zst-53">
          <mxGeometry width="50" height="50" relative="1" as="geometry">
            <mxPoint x="310" y="510" as="sourcePoint" />
            <mxPoint x="418" y="506" as="targetPoint" />
          </mxGeometry>
        </mxCell>
        <mxCell id="4poxYDKG_jttfk51-zst-108" value="" style="endArrow=none;html=1;rounded=0;fillColor=#f8cecc;strokeColor=#b85450;" edge="1" parent="1" target="4poxYDKG_jttfk51-zst-63">
          <mxGeometry width="50" height="50" relative="1" as="geometry">
            <mxPoint x="290" y="550" as="sourcePoint" />
            <mxPoint x="410" y="565" as="targetPoint" />
          </mxGeometry>
        </mxCell>
        <mxCell id="4poxYDKG_jttfk51-zst-133" value="&lt;b&gt;Manage Blogs&lt;/b&gt;" style="ellipse;whiteSpace=wrap;html=1;fillColor=#dae8fc;strokeColor=#6c8ebf;" vertex="1" parent="1">
          <mxGeometry x="447.5" y="1260" width="180" height="60" as="geometry" />
        </mxCell>
        <mxCell id="4poxYDKG_jttfk51-zst-134" value="&lt;b&gt;View Patient Account&lt;/b&gt;" style="ellipse;whiteSpace=wrap;html=1;fillColor=#dae8fc;strokeColor=#6c8ebf;" vertex="1" parent="1">
          <mxGeometry x="627.5" y="1650" width="185" height="40" as="geometry" />
        </mxCell>
        <mxCell id="4poxYDKG_jttfk51-zst-135" value="&lt;b&gt;Delete Blog&lt;/b&gt;" style="ellipse;whiteSpace=wrap;html=1;fillColor=#dae8fc;strokeColor=#6c8ebf;" vertex="1" parent="1">
          <mxGeometry x="692.5" y="1370" width="160" height="40" as="geometry" />
        </mxCell>
        <mxCell id="4poxYDKG_jttfk51-zst-136" value="&lt;b&gt;Edit Blog&lt;/b&gt;" style="ellipse;whiteSpace=wrap;html=1;fillColor=#dae8fc;strokeColor=#6c8ebf;" vertex="1" parent="1">
          <mxGeometry x="512.5" y="1380" width="160" height="40" as="geometry" />
        </mxCell>
        <mxCell id="4poxYDKG_jttfk51-zst-137" value="&lt;b&gt;Create Blog&lt;/b&gt;" style="ellipse;whiteSpace=wrap;html=1;fillColor=#dae8fc;strokeColor=#6c8ebf;" vertex="1" parent="1">
          <mxGeometry x="337.5" y="1370" width="160" height="40" as="geometry" />
        </mxCell>
        <mxCell id="4poxYDKG_jttfk51-zst-138" value="&amp;lt;&amp;lt;include&amp;gt;&amp;gt;" style="html=1;verticalAlign=bottom;labelBackgroundColor=none;endArrow=open;endFill=0;dashed=1;rounded=0;exitX=0.444;exitY=0.929;exitDx=0;exitDy=0;exitPerimeter=0;entryX=0.745;entryY=0.029;entryDx=0;entryDy=0;entryPerimeter=0;" edge="1" parent="1" source="4poxYDKG_jttfk51-zst-133" target="4poxYDKG_jttfk51-zst-137">
          <mxGeometry width="160" relative="1" as="geometry">
            <mxPoint x="397.5" y="1563" as="sourcePoint" />
            <mxPoint x="467.5" y="1596" as="targetPoint" />
          </mxGeometry>
        </mxCell>
        <mxCell id="4poxYDKG_jttfk51-zst-139" value="&amp;lt;&amp;lt;include&amp;gt;&amp;gt;" style="html=1;verticalAlign=bottom;labelBackgroundColor=none;endArrow=open;endFill=0;dashed=1;rounded=0;exitX=0.5;exitY=1;exitDx=0;exitDy=0;entryX=0.438;entryY=0;entryDx=0;entryDy=0;entryPerimeter=0;" edge="1" parent="1" source="4poxYDKG_jttfk51-zst-133" target="4poxYDKG_jttfk51-zst-136">
          <mxGeometry width="160" relative="1" as="geometry">
            <mxPoint x="537.5" y="1326" as="sourcePoint" />
            <mxPoint x="466.5" y="1381" as="targetPoint" />
          </mxGeometry>
        </mxCell>
        <mxCell id="4poxYDKG_jttfk51-zst-140" value="&amp;lt;&amp;lt;include&amp;gt;&amp;gt;" style="html=1;verticalAlign=bottom;labelBackgroundColor=none;endArrow=open;endFill=0;dashed=1;rounded=0;exitX=0.914;exitY=0.827;exitDx=0;exitDy=0;entryX=0;entryY=0;entryDx=0;entryDy=0;exitPerimeter=0;" edge="1" parent="1" source="4poxYDKG_jttfk51-zst-133" target="4poxYDKG_jttfk51-zst-135">
          <mxGeometry width="160" relative="1" as="geometry">
            <mxPoint x="547.5" y="1330" as="sourcePoint" />
            <mxPoint x="592.5" y="1390" as="targetPoint" />
          </mxGeometry>
        </mxCell>
        <mxCell id="4poxYDKG_jttfk51-zst-141" value="&lt;b&gt;Manage Blogs Categories&lt;/b&gt;" style="ellipse;whiteSpace=wrap;html=1;fillColor=#dae8fc;strokeColor=#6c8ebf;" vertex="1" parent="1">
          <mxGeometry x="502.5" y="1460" width="180" height="50" as="geometry" />
        </mxCell>
        <mxCell id="4poxYDKG_jttfk51-zst-142" value="&lt;b&gt;Create Blog&lt;/b&gt;" style="ellipse;whiteSpace=wrap;html=1;fillColor=#dae8fc;strokeColor=#6c8ebf;" vertex="1" parent="1">
          <mxGeometry x="360" y="1570" width="160" height="40" as="geometry" />
        </mxCell>
        <mxCell id="4poxYDKG_jttfk51-zst-143" value="&lt;b&gt;Create Blog&lt;/b&gt;" style="ellipse;whiteSpace=wrap;html=1;fillColor=#dae8fc;strokeColor=#6c8ebf;" vertex="1" parent="1">
          <mxGeometry x="532.5" y="1570" width="160" height="40" as="geometry" />
        </mxCell>
        <mxCell id="4poxYDKG_jttfk51-zst-144" value="&lt;b&gt;Create Blog&lt;/b&gt;" style="ellipse;whiteSpace=wrap;html=1;fillColor=#dae8fc;strokeColor=#6c8ebf;" vertex="1" parent="1">
          <mxGeometry x="702.5" y="1570" width="160" height="40" as="geometry" />
        </mxCell>
        <mxCell id="4poxYDKG_jttfk51-zst-145" value="&amp;lt;&amp;lt;include&amp;gt;&amp;gt;" style="html=1;verticalAlign=bottom;labelBackgroundColor=none;endArrow=open;endFill=0;dashed=1;rounded=0;exitX=0.07;exitY=0.673;exitDx=0;exitDy=0;exitPerimeter=0;" edge="1" parent="1" source="4poxYDKG_jttfk51-zst-141" target="4poxYDKG_jttfk51-zst-142">
          <mxGeometry width="160" relative="1" as="geometry">
            <mxPoint x="537.5" y="1326" as="sourcePoint" />
            <mxPoint x="466.5" y="1381" as="targetPoint" />
          </mxGeometry>
        </mxCell>
        <mxCell id="4poxYDKG_jttfk51-zst-146" value="&amp;lt;&amp;lt;include&amp;gt;&amp;gt;" style="html=1;verticalAlign=bottom;labelBackgroundColor=none;endArrow=open;endFill=0;dashed=1;rounded=0;entryX=0.5;entryY=0;entryDx=0;entryDy=0;exitX=0.5;exitY=1;exitDx=0;exitDy=0;" edge="1" parent="1" source="4poxYDKG_jttfk51-zst-141" target="4poxYDKG_jttfk51-zst-143">
          <mxGeometry width="160" relative="1" as="geometry">
            <mxPoint x="592.5" y="1530" as="sourcePoint" />
            <mxPoint x="466.5" y="1580" as="targetPoint" />
          </mxGeometry>
        </mxCell>
        <mxCell id="4poxYDKG_jttfk51-zst-147" value="&amp;lt;&amp;lt;include&amp;gt;&amp;gt;" style="html=1;verticalAlign=bottom;labelBackgroundColor=none;endArrow=open;endFill=0;dashed=1;rounded=0;entryX=0.444;entryY=0.106;entryDx=0;entryDy=0;exitX=1;exitY=1;exitDx=0;exitDy=0;entryPerimeter=0;" edge="1" parent="1" source="4poxYDKG_jttfk51-zst-141" target="4poxYDKG_jttfk51-zst-144">
          <mxGeometry width="160" relative="1" as="geometry">
            <mxPoint x="602.5" y="1520" as="sourcePoint" />
            <mxPoint x="622.5" y="1580" as="targetPoint" />
          </mxGeometry>
        </mxCell>
        <mxCell id="4poxYDKG_jttfk51-zst-148" value="&lt;b&gt;View Doctors Account&lt;/b&gt;" style="ellipse;whiteSpace=wrap;html=1;fillColor=#dae8fc;strokeColor=#6c8ebf;" vertex="1" parent="1">
          <mxGeometry x="372.5" y="1690" width="185" height="40" as="geometry" />
        </mxCell>
        <mxCell id="4poxYDKG_jttfk51-zst-149" value="&lt;b&gt;Activate Account&lt;/b&gt;" style="ellipse;whiteSpace=wrap;html=1;fillColor=#dae8fc;strokeColor=#6c8ebf;" vertex="1" parent="1">
          <mxGeometry x="375" y="1850" width="160" height="40" as="geometry" />
        </mxCell>
        <mxCell id="4poxYDKG_jttfk51-zst-150" value="&lt;b&gt;Deactivate Account&lt;/b&gt;" style="ellipse;whiteSpace=wrap;html=1;fillColor=#dae8fc;strokeColor=#6c8ebf;" vertex="1" parent="1">
          <mxGeometry x="587.5" y="1850" width="160" height="40" as="geometry" />
        </mxCell>
        <mxCell id="4poxYDKG_jttfk51-zst-152" value="&amp;lt;&amp;lt;include&amp;gt;&amp;gt;" style="html=1;verticalAlign=bottom;labelBackgroundColor=none;endArrow=open;endFill=0;dashed=1;rounded=0;entryX=0.28;entryY=-0.048;entryDx=0;entryDy=0;entryPerimeter=0;" edge="1" parent="1" source="4poxYDKG_jttfk51-zst-148" target="4poxYDKG_jttfk51-zst-149">
          <mxGeometry width="160" relative="1" as="geometry">
            <mxPoint x="525.5" y="1504" as="sourcePoint" />
            <mxPoint x="465.5" y="1580" as="targetPoint" />
          </mxGeometry>
        </mxCell>
        <mxCell id="4poxYDKG_jttfk51-zst-153" value="&amp;lt;&amp;lt;include&amp;gt;&amp;gt;" style="html=1;verticalAlign=bottom;labelBackgroundColor=none;endArrow=open;endFill=0;dashed=1;rounded=0;entryX=0;entryY=0.5;entryDx=0;entryDy=0;exitX=0.654;exitY=0.913;exitDx=0;exitDy=0;exitPerimeter=0;" edge="1" parent="1" source="4poxYDKG_jttfk51-zst-148" target="4poxYDKG_jttfk51-zst-150">
          <mxGeometry width="160" relative="1" as="geometry">
            <mxPoint x="468.5" y="1740" as="sourcePoint" />
            <mxPoint x="429.5" y="1858" as="targetPoint" />
          </mxGeometry>
        </mxCell>
        <mxCell id="4poxYDKG_jttfk51-zst-154" value="&amp;lt;&amp;lt;include&amp;gt;&amp;gt;" style="html=1;verticalAlign=bottom;labelBackgroundColor=none;endArrow=open;endFill=0;dashed=1;rounded=0;entryX=0.75;entryY=0.106;entryDx=0;entryDy=0;exitX=0.622;exitY=1.106;exitDx=0;exitDy=0;exitPerimeter=0;entryPerimeter=0;" edge="1" parent="1" source="4poxYDKG_jttfk51-zst-134" target="4poxYDKG_jttfk51-zst-150">
          <mxGeometry width="160" relative="1" as="geometry">
            <mxPoint x="503.5" y="1737" as="sourcePoint" />
            <mxPoint x="597.5" y="1880" as="targetPoint" />
          </mxGeometry>
        </mxCell>
        <mxCell id="4poxYDKG_jttfk51-zst-155" value="&amp;lt;&amp;lt;include&amp;gt;&amp;gt;" style="html=1;verticalAlign=bottom;labelBackgroundColor=none;endArrow=open;endFill=0;dashed=1;rounded=0;entryX=1;entryY=0;entryDx=0;entryDy=0;exitX=0.298;exitY=0.952;exitDx=0;exitDy=0;exitPerimeter=0;" edge="1" parent="1" source="4poxYDKG_jttfk51-zst-134" target="4poxYDKG_jttfk51-zst-149">
          <mxGeometry width="160" relative="1" as="geometry">
            <mxPoint x="765.5" y="1744" as="sourcePoint" />
            <mxPoint x="717.5" y="1864" as="targetPoint" />
          </mxGeometry>
        </mxCell>
        <mxCell id="4poxYDKG_jttfk51-zst-156" value="&lt;table&gt;&lt;tbody&gt;&lt;tr&gt;&lt;td data-col-size=&quot;sm&quot; data-end=&quot;1948&quot; data-start=&quot;1913&quot;&gt;&lt;b&gt;View &quot;Contact Us&quot; Messages&lt;/b&gt;&lt;/td&gt;&lt;/tr&gt;&lt;/tbody&gt;&lt;/table&gt;&lt;table&gt;&lt;tbody&gt;&lt;tr&gt;&lt;td data-end=&quot;2031&quot; data-start=&quot;1948&quot; data-col-size=&quot;md&quot;&gt;&lt;/td&gt;&lt;/tr&gt;&lt;/tbody&gt;&lt;/table&gt;" style="ellipse;whiteSpace=wrap;html=1;fillColor=#dae8fc;strokeColor=#6c8ebf;" vertex="1" parent="1">
          <mxGeometry x="337.5" y="1970" width="207.5" height="60" as="geometry" />
        </mxCell>
        <mxCell id="4poxYDKG_jttfk51-zst-157" value="" style="endArrow=none;html=1;rounded=0;exitX=1.158;exitY=0.747;exitDx=0;exitDy=0;fillColor=#f8cecc;strokeColor=#b85450;exitPerimeter=0;" edge="1" parent="1" target="4poxYDKG_jttfk51-zst-133">
          <mxGeometry width="50" height="50" relative="1" as="geometry">
            <mxPoint x="13" y="1167" as="sourcePoint" />
            <mxPoint x="378" y="390" as="targetPoint" />
          </mxGeometry>
        </mxCell>
        <mxCell id="4poxYDKG_jttfk51-zst-158" value="" style="endArrow=none;html=1;rounded=0;exitX=0.75;exitY=0;exitDx=0;exitDy=0;fillColor=#f8cecc;strokeColor=#b85450;entryX=0;entryY=0.5;entryDx=0;entryDy=0;" edge="1" parent="1" source="4poxYDKG_jttfk51-zst-44" target="4poxYDKG_jttfk51-zst-141">
          <mxGeometry width="50" height="50" relative="1" as="geometry">
            <mxPoint x="23" y="1177" as="sourcePoint" />
            <mxPoint x="474" y="1283" as="targetPoint" />
            <Array as="points">
              <mxPoint x="230" y="1430" />
            </Array>
          </mxGeometry>
        </mxCell>
        <mxCell id="4poxYDKG_jttfk51-zst-159" value="" style="endArrow=none;html=1;rounded=0;exitX=0;exitY=0.5;exitDx=0;exitDy=0;fillColor=#f8cecc;strokeColor=#b85450;" edge="1" parent="1" source="4poxYDKG_jttfk51-zst-148" target="4poxYDKG_jttfk51-zst-44">
          <mxGeometry width="50" height="50" relative="1" as="geometry">
            <mxPoint x="430" y="1670" as="sourcePoint" />
            <mxPoint x="480" y="1620" as="targetPoint" />
            <Array as="points">
              <mxPoint x="110" y="1710" />
            </Array>
          </mxGeometry>
        </mxCell>
        <mxCell id="4poxYDKG_jttfk51-zst-160" value="" style="endArrow=none;html=1;rounded=0;exitX=0;exitY=0.5;exitDx=0;exitDy=0;fillColor=#f8cecc;strokeColor=#b85450;entryX=0.75;entryY=1;entryDx=0;entryDy=0;" edge="1" parent="1" source="4poxYDKG_jttfk51-zst-134" target="4poxYDKG_jttfk51-zst-44">
          <mxGeometry width="50" height="50" relative="1" as="geometry">
            <mxPoint x="382.5" y="1660" as="sourcePoint" />
            <mxPoint x="3.5" y="1150" as="targetPoint" />
            <Array as="points">
              <mxPoint x="119.5" y="1660" />
            </Array>
          </mxGeometry>
        </mxCell>
        <mxCell id="4poxYDKG_jttfk51-zst-161" value="" style="endArrow=none;html=1;rounded=0;exitX=0.033;exitY=0.256;exitDx=0;exitDy=0;fillColor=#f8cecc;strokeColor=#b85450;exitPerimeter=0;entryX=0.25;entryY=1;entryDx=0;entryDy=0;" edge="1" parent="1" source="4poxYDKG_jttfk51-zst-156" target="4poxYDKG_jttfk51-zst-44">
          <mxGeometry width="50" height="50" relative="1" as="geometry">
            <mxPoint x="383" y="1720" as="sourcePoint" />
            <mxPoint x="4" y="1210" as="targetPoint" />
            <Array as="points">
              <mxPoint x="90" y="1720" />
            </Array>
          </mxGeometry>
        </mxCell>
      </root>
    </mxGraphModel>
  </diagram>
</mxfile>
